<?xml version="1.0" encoding="utf-8"?>
<!-- Generator: Adobe Illustrator 25.1.0, SVG Export Plug-In . SVG Version: 6.00 Build 0)  -->
<svg version="1.1" id="Layer_1" xmlns="http://www.w3.org/2000/svg" xmlns:xlink="http://www.w3.org/1999/xlink" x="0px" y="0px"
	 viewBox="0 0 1920 1080" style="enable-background:new 0 0 1920 1080;" xml:space="preserve">
<style type="text/css">
	.st0{fill:#FFDA3E;}
</style>
<g>
	<polygon points="587.72,729.96 587.72,840.36 587.72,858 604.76,853.43 1332.28,658.49 1332.28,654.04 1332.28,530.45 
		604.76,725.39 	"/>
	<polygon class="st0" points="1332.28,526 1332.28,222 597.75,418.82 587.72,421.51 587.72,431.89 587.72,712.32 587.72,729.96 
		604.76,725.39 1332.28,530.45 	"/>
	<g>
		<path class="st0" d="M763.49,755.27v27.87l-10.48,2.79v-27.35c0-11.11-5.55-14.24-13.94-12c-9.33,2.49-15.3,10.16-15.3,21.79
			v25.36l-10.48,2.8v-27.35c0-11.11-5.45-14.26-13.94-12c-9.22,2.46-15.19,10.13-15.19,21.76v25.36l-10.48,2.8v-52.39l7.13-1.9
			l0.73,9.86c3.88-8.47,11.53-13.87,19.39-15.96c9.53-2.54,16.56-0.12,19.59,6.93c3.56-9.23,11.63-15.26,20.12-17.52
			C755.32,732.2,763.49,739.76,763.49,755.27z"/>
		<path class="st0" d="M891.11,710.74c1.99,3.87,2.2,10.31,0.94,14.63l-39.92,10.65c0,9.22,7.02,12.69,16.35,10.2
			c6.08-1.62,11.95-4.86,16.87-9.11l5.66,4.57c-5.76,5.94-13.41,11.65-22.53,14.08c-16.14,4.3-27.14-4.08-27.14-19.58
			c0-14.88,10.27-29.67,26.51-34C879.16,699.16,887.23,702.66,891.11,710.74z M852.55,729.2l30.07-8.02c0-1.57-0.42-3.45-1.26-4.8
			c-2.2-4.23-6.92-6.43-13.41-4.7C859.05,714.06,852.97,721.97,852.55,729.2z"/>
		<path class="st0" d="M1013.39,716.47l-0.63-9.47c-3.88,7.22-11,13.2-19.28,15.41c-14.88,3.97-25.88-5.04-25.88-19.92
			s11-29.86,25.88-33.83c7.02-1.87,13.2-0.06,16.56,4.17v-28.81l10.48-2.8v73.34L1013.39,716.47z M1010.87,690.95
			c0-9.95-7.75-14.8-16.45-12.48c-8.7,2.32-16.35,11.28-16.35,21.23c0,9.95,7.65,14.72,16.35,12.4
			C1003.12,709.78,1010.87,700.9,1010.87,690.95z"/>
		<path class="st0" d="M1102.55,629.08c0-3.14,2.72-6.28,6.29-7.23c3.46-0.92,6.18,0.76,6.18,3.9c0,3.14-2.72,6.38-6.18,7.31
			C1105.28,634.01,1102.55,632.23,1102.55,629.08z M1103.49,640.04l10.48-2.8v52.39l-10.48,2.79V640.04z"/>
		<path class="st0" d="M1239.18,656.23l-0.63-9.47c-3.88,7.22-11,13.2-19.28,15.41c-14.88,3.97-25.88-5.04-25.88-19.92
			c0-14.88,11-29.86,25.88-33.83c8.28-2.21,15.4,0.08,19.28,5.23l0.63-9.81l7.13-1.9v52.39L1239.18,656.23z M1236.67,630.71
			c0-9.95-7.75-14.8-16.45-12.48c-8.7,2.32-16.35,11.28-16.35,21.23c0,9.95,7.65,14.72,16.35,12.4
			C1228.92,649.54,1236.67,640.66,1236.67,630.71z"/>
	</g>
	<path d="M893.72,402.7l-62.59,199.15l183.27-49.11L952.2,387.03L893.72,402.7z M922.83,452.04l25.43,71.06l-50.95,13.75
		L922.83,452.04z"/>
	<polygon points="1035.69,547.35 1083.28,534.6 1083.28,352.18 1035.69,364.78 	"/>
	<polygon points="1228.23,313.07 1228.23,439.63 1153.01,333.22 1108.92,345.03 1108.92,527.73 1156.51,514.98 1156.51,422.19 
		1210.99,499.43 1275.82,482.06 1275.82,300.31 	"/>
	<path d="M813.64,525.82c7.4-13.91,11.1-28.17,11.1-42.76c0-10.79-2.06-20.29-6.19-28.5c-4.13-8.21-9.58-14.97-16.66-19.86
		c-2.81-1.94-5.93-3.6-9.19-5l-140.24,37.58v182.7l47.59-12.75v-44.35l34.9-9.25l29.03,36.47l55.32-14.82l-23.25-29.44l-0.11,0.05
		l-11.5-14.56C796.51,551.56,806.24,539.73,813.64,525.82z M768.02,510.39c-1.59,3.61-3.73,6.95-6.41,10.03
		c-2.68,3.08-5.86,5.74-9.54,8c-3.68,2.26-7.6,3.87-11.77,4.85l-40.24,9.39v-53.54l40.24-9.39c4.17-0.97,8.09-1.19,11.77-0.65
		c3.67,0.54,6.86,1.73,9.54,3.55c2.68,1.83,4.82,4.17,6.41,7.03c1.59,2.87,2.38,6.14,2.38,9.81
		C770.41,503.14,769.61,506.78,768.02,510.39z"/>
</g>
</svg>
