<svg xmlns="http://www.w3.org/2000/svg" width="82" height="132.406" viewBox="0 0 82 132.406">
  <g id="smartphone" transform="translate(0.007 0.022)">
    <path id="Path_13" data-name="Path 13" d="M480.652,1914.431H525.8a14.126,14.126,0,0,0,14.157-14.157v-98.237a14.126,14.126,0,0,0-14.157-14.157H480.652a14.126,14.126,0,0,0-14.157,14.157v98.237A14.126,14.126,0,0,0,480.652,1914.431Z" transform="translate(-462.631 -1786.17)" fill="#fff"/>
    <path id="Path_14" data-name="Path 14" d="M530.439,1786.5c-2.141,0-17.751.477-31.455.589-5.369.045-33.509-3.617-34.059,10.741l-.6,21.873c-.1,21.037-1.719,50.653-.394,75.667.462,13.827,2.758,23.583,17.925,23.251,1.713.285,9.772.372,17.908.193s19.174-.367,24.527-.42c19.163-.253,20.444-3.375,20.854-24.156.641-22.816.009-58.409-.646-89.741-.177-9.649.02-16.938-14.058-18Zm-42.66,7.225c2.746-.011,5.948,0,9.648.033,35.444.323,36.812-.147,39.164,2.205,4.707,38.73,1.763,84.129,1.325,111.236-1.134,5.892-15.213,4.052-23.368,3.49.242-2.728,2.082-5.137.255-8.382-.506-.507-.7-1.138-.438-1.4s3.18-.584,9.092-.86c15.27-.008,12.372-3.18,13.357-25.753-.814-19.777-1.716-43.1-1.851-59.353-.477-9.3.893-15.819-3.078-16.261-1.377-.153-3.492-.6-23.366-1.224-24.877-.784-28.437-.58-30.964,1.775-1.51,1.407-1.7,2.667-1.688,10.2.088,21.359-1.206,40.563-.043,61.332-.182,11.238,1,19.558,1.033,24.327,0,3.99,4.294,5.027,14.968,5.369,8.837.283,9.188.358,9.062,1.962-.247,3.147,1.791,6.762,3.813,8.942,1.114,1.2-12.185,1.276-18.71.929-3.021.263-13.735.338-14.017-8.414-.78-28.8-.16-60.425-1.782-85.674-.443-19.974-.114-21.877,4.108-23.716,1.111-.484,5.242-.725,13.48-.759Zm38.308,10.2c2.773-.577,4.742-.273,3.949,11.761,1.024,21.2-.119,40.48.572,51.746,1.262,20.58-.679,26.806-4.867,26.171-.164.148-5.432.034-18.387.336-7.851.183-23.757,1.753-23.751-3.759-1.362-29.12-1.9-55.8-1.69-85.033-1.091-5.416,28.479-3.186,44.173-1.222Zm-38.154,7.155a2.884,2.884,0,0,0-1.56,1.429c-1.055,1.689-.546,4.539,1.162,6.513,2.227,2.574,11.455,1.256,10.91-1.559-.221-1.14-.977-1.32-4.672-1.11-3.758.214-4.53.021-5.24-1.306a3.924,3.924,0,0,1-.363-2.78C488.5,1811.407,488.325,1811.023,487.932,1811.077Zm17.048.4c-.807.042-1.014,1.408-.14,3.61a19.966,19.966,0,0,0,1.766,3.546c1.033,1.352,5.608,1.22,6.783-.195,1.315-1.585-.275-3.5-2.9-3.5a4.964,4.964,0,0,1-3.51-2C506.164,1811.9,505.464,1811.448,504.98,1811.474Zm13.263.82c-1.227.04-1.308,1.627-.2,4.535a2.615,2.615,0,0,0,2.68,2c2.682,0,3.255-1.4,1.315-3.2a5.452,5.452,0,0,1-1.639-2.185c0-.362-.7-.841-1.557-1.064A2.1,2.1,0,0,0,518.243,1812.293Zm-11.717,16.731a.816.816,0,0,0-.695.213c-1.025,1.025.724,7.53,2.327,8.653,2.018,1.413,3.059,1.482,4.26.281,1.124-1.124-.126-3.774-1.781-3.774-.693,0-1.141-.753-1.141-1.919a4.223,4.223,0,0,0-2.97-3.454Zm-15.273.406a1.613,1.613,0,0,0-1,.43c-1.316,1.092-.779,5.448,1.016,8.235,1.5,2.322,7.322,2.59,7.322.336,0-.851-1.011-1.862-2.531-2.531-1.71-.752-2.618-1.746-2.8-3.061C492.961,1830.649,492.2,1829.422,491.252,1829.431Zm26.756,1.852c-1.277,0-.442,4.249,1.11,5.645,2.041,1.836,4.392,1.77,4.392-.125,0-1.442-4.065-5.521-5.5-5.521Zm-11.45,18.736c-.6-.025-.956.323-.956,1.069,0,1.749,1.558,5.408,2.579,6.057,1.706,1.085,4.366.625,5.18-.894,1.071-2,1.018-2.387-.322-2.387a7.226,7.226,0,0,1-3.229-1.947,6.169,6.169,0,0,0-3.251-1.9Zm-14.382.073a1.758,1.758,0,0,0-.353.036c-1.125.23-1.356.9-1.154,3.375a9.069,9.069,0,0,0,1.483,4.448c1.662,1.839,9.381,1.949,10.073.143.665-1.733-.637-2.732-4.177-3.207-2.518-.338-3.227-.829-3.945-2.73C493.571,1850.746,492.973,1850.1,492.177,1850.092Zm28.015,2.435c-1.027.016-1.049,1.27-.64,4.589.036.29.679.688,1.428.884s1.538.39,1.752.433a3.213,3.213,0,0,0,1.445-.59c1.522-.965.451-3.574-1.909-4.649a5.7,5.7,0,0,0-2.076-.667Zm-29.723,15.352c-.94,0-.377,4.416.773,6.057,1.333,1.9,3.142,2.276,3.665.756C495.71,1872.359,492.791,1867.878,490.469,1867.878Zm18.594,33.247c.248.005.516.209.878.57,1.449,1.449,1.521,5.287-.008,5.874-2.825,1.084-5.019-2.061-3.79-4.524a4.344,4.344,0,0,1,2.92-1.92Z" transform="translate(-463.417 -1786.522)" fill="#030303"/>
  </g>
</svg>
