<svg xmlns="http://www.w3.org/2000/svg" width="211.281" height="100.056" viewBox="0 0 211.281 100.056">
  <g id="calligraphy" transform="translate(0.003 0.005)">
    <path id="Path_7" data-name="Path 7" d="M206.5,491.333c-2.315-12.315-4.039-39.191-3.9-42.459s7.353-6.821,10.643-7.454,11.324-1.818,11.324-1.818l.613-4.983-8.941-2.369,2-19.279,48.881.163,2.587,18.993-7.08,2.144.3,5.535,20.946,9.272-2.02,52.1-47.088,8.312Z" transform="translate(-199.061 -410.264)" fill="#fff"/>
    <path id="Path_8" data-name="Path 8" d="M231.492,509.988c-8.614-2.8-16.747-8.4-23.506-12.773-2.194-1.276-3.287-2.723-3.57-4.1-2.342-12.023-3.523-24.464-4.519-34.823-2.373-15.781,9.809-19.568,20.514-19.662,2.389-.323,3.795-1.481.892-1.987-4.069-.195-5.717-2.968-6.512-4.957-.674-1.921-.076-14.5.786-16.534,1.092-2.572,2.853-3.524,7.6-4.108,5.831-.717,34.038-.3,40.956.476,9.356-.125,10.871,17.493,7.2,21.46a5.546,5.546,0,0,1-3.68,1.985c-2.809.421-3.471.863-3.471,2.316.76,2.3,13.207,5.726,18.239,7.889,1.863.736,3.886,2.5,4.461,6.414,6.177,6.232-4.615,37.908-2.759,43.552.68,0,1.707,2.572,1.707,4.277-3.674,11.178-50.633,12.523-54.339,10.578Zm48.207-11.44c-3.451-12.23,1.389-24.025,2.117-36.586.227-3.511,1.029-9.739-1.374-12.392-3.615-2.306-7.557-3.721-12.639-5.387-3.37-1.561-4.374-.806-6.27-1.248-.859-.215-1.086-.058-1.458,1.008.738,5.171-33.769,5.7-33.75-.926-5.009,1.38-12.415,1.28-17.067,3.389-3.648,2.415-4.167,6.971-3.782,10.317,1.112,10.78,2.214,21.658,3.963,31.788.516,2.489.687,3.3,2.771,5.441,5.778,4.84,17.969,11.028,24.653,11.124,6.327.708,32.258-.076,42.835-6.528Zm-54.783-4.873c-.165-1.772-.478-2.976-.8-3.079-6.719-1.288-16.693-16.844-13.611-25.077,2.423-4.8,7.621.2,11.039.471.482,0,.464-.3-.105-1.769-.873-2.249-1.239-2.706-3.118-3.892-5.061-3.987,1.266-4.474,3.984-2.69,7.773,2.893,10.8,42.368,6.216,41.241-2.8-.558-3.442-3.507-3.606-5.2Zm10.327-7.153c-3.314-8.65-3.044-16.622-.016-23.64,1.734-3.985,6.129-7.507,8.736-7,2.237.435,2.692,2.6.757,3.605-1.788,1.606-4.6,3.392-4.33,5.806.088.774,4.127.827,7.764.1,4.033-.8,9.172-.837,10.272-.066,3.064.547,7.8,1.093,10.147-.372,2.355-1.808,4.694-5.076,7.738-2.407,3.327,4.319,1.118,14.948.153,22.256-1.992,7.834-15.132,10.825-23.105,11.32-7.441.411-14.405-2.442-18.115-9.6Zm6.458-32.36c-18.674-.3-21.471-.489-22.962-1.545-4.426-2.163-5.8-6.189-.977-4.705,2.841.884,3.482.935,15.82,1.269,22.273.6,30.862.445,38.013-.7,2.521-.4,2.711-.374,3.557.534a2.735,2.735,0,0,1,.771,2.2c-.121,1.218-.193,1.254-3.955,1.957-11.536.657-21.743,1.125-30.269.986Zm17.775-11.838c.6.5.648.437.4-.585-.387-1.608-.667-3.534-.951-5.338-.04-1.167-4.516-1.7-4.27-.17-.8,4.251-4.99,3.234-5.151-.427-4.514.19-9.286.692-13.026.627-1.059,0-1.1.085-.933,1.769-1.37,6.312-4.869,2.225-4.9-1.3-1.178-.225-2.523-.308-2.873,1.62-.242,1.327-.145,1.521,1.107,2.223,12.91,6.867,29.29-.379,30.6,1.586Zm-25.269-10.279c16.55-1.027,28.487.181,31.687-.257,2.31-.692,3.43-2.938,3.058-6.134a54.547,54.547,0,0,0-2.265-8.9c-.469-1.5-17.153-1.664-23.321-1.7-17.922-.081-22.522-.243-23.264,1.6-1.794,4.666-1.75,12.09-1.25,13.973.626,3.2,10.6,1.6,15.355,1.421Zm-7.427-10.911c-2.818-3.258.124-3.742,2.6-2.84,2.256.759,7.139.854,20.434.4,9.755-.334,10.514-.292,11.514.64,1.569,2.372.133,3.6-1.579,3.685-7.819.352-26.768,2.639-32.973-1.884Zm77.46,72.756c-3.551-5.756,13.009-7.333,6.342-8.365a16.636,16.636,0,0,0-3.231-.4c-3.336-.02-6.5-.717-7.647-1.685a18.029,18.029,0,0,0-5.131-2.271c-4.06-1.257-3.686-5.215-2.051-7.243,1.559-1.831,4.577-3.431,6.644-3.354,5.734.213,7.364-2.834,11.7-2.914,9.411-1.6,19.559-.475,27.708.417,1.1.12,4.151,1.044,4.124,3.143.314,1.251,1.957,1.417,6.6.666,4.2-.982,7.185.351,10.31,3.373,2.943,3.167,1.65,5.847-1.545,6.791-2.893.855-5.052,1.63-.862,1.913,6.921-.013,13.588-1.926,20.439.184a5.161,5.161,0,0,0,2.486-.252c4.388-.831,18.187,7.459,9.621,9.4-20.421,6.235-39.194-1.4-58.125,5.062-6.426,2.194-22.8,2.968-27.386-4.463Zm101.908-3.876c-2.438-.457-2.9-.809-2.908-2.226-.007-.979,1.439-1.591,3.387-1.433,1.616-.332,4.132-.308,4.251,1.9C410.452,491.358,408.171,490.394,406.148,490.014Zm-38.782-12.264c-2.5-6.754,11.562-5.42,14.527-4.857s5.271,5.1,3.111,5.35C380.936,478.713,369.379,482.258,367.367,477.751Z" transform="translate(-199.6 -410.678)" fill="#030303"/>
  </g>
</svg>
