<svg xmlns="http://www.w3.org/2000/svg" width="317.883" height="317.915" viewBox="0 0 317.883 317.915"><path d="M617.389,350.471l153.4-148.135c-.283,4.219-.737,8.466-1.351,12.622l-139.382,134.6c-4.181.469-8.441.776-12.663.912h0Zm-16.925-.338h0A159.2,159.2,0,0,1,478.852,278.27l224.6-216.9a159.8,159.8,0,0,1,47.824,53.16,158.109,158.109,0,0,1,19.751,70.887L600.465,350.134Zm50.87-4.443,113.49-109.6a159.133,159.133,0,0,1-113.487,109.6Zm-178.807-78v0h0c-2.14-3.916-4.135-7.966-5.931-12.039L681.283,48.334c4.011,1.94,7.989,4.076,11.825,6.35L472.528,267.695Zm-10.682-24.136h0a159.1,159.1,0,0,1,207.517-200.4l-207.517,200.4Z" transform="translate(-453.147 -32.557)" fill="rgba(255,168,38,0.28)"/></svg>