<svg xmlns="http://www.w3.org/2000/svg" width="162.039" height="33.61" viewBox="0 0 162.039 33.61">
  <g id="pen" transform="translate(0.004 0.001)">
    <path id="Path_9" data-name="Path 9" d="M402.151,75.662c15.415-.62,100.146-1.039,103.427-.565S539.77,86.965,542.14,87.2s-28.075,14.821-28.075,14.821-104.217,2.26-109.929,1.6-13.774-1.313-12.944-11.74S402.151,75.662,402.151,75.662Z" transform="translate(-388.505 -72.744)" fill="#fff"/>
    <path id="Path_10" data-name="Path 10" d="M427.81,106.5c-15.336.388-18.617-.151-23.184.316-6.13.036-14.462.131-15.556-11.543.554-12.349,5.316-21.3,18.2-21.693,12.507.517,23.547.457,36.057.038,17.885.328,42.343-.692,53.919-.327,4.226.481,7.732-.618,11.589.688,11.691,3.189,29.891,8.736,40.415,13.423,3.726,2.35,1.033,3.523-1.02,4.681-12.717,3.511-29.561,12.821-34.914,13.02-29.167-.034-58.8.746-85.509,1.4Zm80.133-9.407c-1.206-1.349-1.451-1.424-4.474-1.364-24.844-.412-48.353,1.618-72.816,1.161-1.349.384-6.453-.464-8.041-.61-1.94-.334-1.666-1.074-1.355-2.287.224-.873.627-.374,7.06-1.21,3.833-.5,8.186-.3,11.213-.45,21.732-.681,40.487-1.306,61.671-1.223,2.353-.275,6.918.918,5.929-2.29-.416-.595-4.973-.679-16.24-.3-5.668.191-11.747.352-13.51.358-9.028.029-27.4-.035-30.722-.107-.993-.021-6.3.093-11.794.254-6.414-.35-11.792.28-17.6-.668.1,4.831-.692,9.18-.338,12.418.258.228,15.205-.147,30.584-.768,14.373-.742,29.052-.348,42.136-.567,4.461-.076,8.188-.072,8.283.008,4.547.154,13.871,1.985,10.007-2.358Zm11.793-.017c3.589-1.092,6.949-4.024,10.214-4.9,2.646-1.214-.441-7.26-2.022-7.544-4.492.263-17.008-5.876-19.1-4.017-1.322,1.389-1.192,2.637.457,4.4,1.909,2.5,5.122.942,6.565,3.238.329,3.31-2.566,2.349-3.442,4.8-.786,2.235-.342,2.834,1.731,2.333,1.056-.255,1.4-.072,2.255,1.214,1.181,1.768,1.3,1.785,3.346.481Zm-114.76,3.55c0-7.146-.436-13.948-1-20.977a16.382,16.382,0,0,0-6.261,3.868C391.419,90.161,394.335,104.521,404.976,100.625Zm6.582-4.482c.03-3.286.047-17.212-2.122-17.235.318.133.08,24.1,1.425,22.019.275-.015.508-2.975.7-4.784ZM503.864,80c-30.126-1.867-55.608.471-83.524-.133l-4.177-.1c.222,2.2.59,4.99,2.251,4.92,23.16-1.279,49.122-.223,70.037-1.015a131.941,131.941,0,0,1,13.753-.163c1.814-.092,1.961-1.737,1.66-3.513Z" transform="translate(-389.075 -73.21)" fill="#030303"/>
  </g>
</svg>
