<svg xmlns="http://www.w3.org/2000/svg" xmlns:xlink="http://www.w3.org/1999/xlink" width="561" height="422" viewBox="0 0 561 422">
  <defs>
    <clipPath id="clip-path">
      <rect width="561" height="422" fill="none"/>
    </clipPath>
  </defs>
  <g id="points" opacity="0.38" clip-path="url(#clip-path)">
    <g transform="translate(-1726 -204)">
      <rect id="Rectangle_2" data-name="Rectangle 2" width="23" height="23" rx="7" transform="translate(1741 207)" fill="red"/>
    </g>
    <g transform="translate(-1664 -204)">
      <rect id="Rectangle_2-2" data-name="Rectangle 2" width="23" height="23" rx="7" transform="translate(1741 207)" fill="red"/>
    </g>
    <g transform="translate(-1602 -204)">
      <rect id="Rectangle_2-3" data-name="Rectangle 2" width="23" height="23" rx="7" transform="translate(1741 207)" fill="red"/>
    </g>
    <g transform="translate(-1540 -204)">
      <rect id="Rectangle_2-4" data-name="Rectangle 2" width="23" height="23" rx="7" transform="translate(1741 207)" fill="red"/>
    </g>
    <g transform="translate(-1478 -204)">
      <rect id="Rectangle_2-5" data-name="Rectangle 2" width="23" height="23" rx="7" transform="translate(1741 207)" fill="red"/>
    </g>
    <g transform="translate(-1416 -204)">
      <rect id="Rectangle_2-6" data-name="Rectangle 2" width="23" height="23" rx="7" transform="translate(1741 207)" fill="red"/>
    </g>
    <g transform="translate(-1354 -204)">
      <rect id="Rectangle_2-7" data-name="Rectangle 2" width="23" height="23" rx="7" transform="translate(1741 207)" fill="red"/>
    </g>
    <g transform="translate(-1292 -204)">
      <rect id="Rectangle_2-8" data-name="Rectangle 2" width="23" height="23" rx="7" transform="translate(1741 207)" fill="red"/>
    </g>
    <g transform="translate(-1230 -204)">
      <rect id="Rectangle_2-9" data-name="Rectangle 2" width="23" height="23" rx="7" transform="translate(1741 207)" fill="red"/>
    </g>
    <g transform="translate(-1168 -204)">
      <rect id="Rectangle_2-10" data-name="Rectangle 2" width="23" height="23" rx="7" transform="translate(1741 207)" fill="red"/>
    </g>
    <g transform="translate(-1726 -129)">
      <rect id="Rectangle_2-11" data-name="Rectangle 2" width="23" height="23" rx="7" transform="translate(1741 207)" fill="red"/>
    </g>
    <g transform="translate(-1664 -129)">
      <rect id="Rectangle_2-12" data-name="Rectangle 2" width="23" height="23" rx="7" transform="translate(1741 207)" fill="red"/>
    </g>
    <g transform="translate(-1602 -129)">
      <rect id="Rectangle_2-13" data-name="Rectangle 2" width="23" height="23" rx="7" transform="translate(1741 207)" fill="red"/>
    </g>
    <g transform="translate(-1540 -129)">
      <rect id="Rectangle_2-14" data-name="Rectangle 2" width="23" height="23" rx="7" transform="translate(1741 207)" fill="red"/>
    </g>
    <g transform="translate(-1478 -129)">
      <rect id="Rectangle_2-15" data-name="Rectangle 2" width="23" height="23" rx="7" transform="translate(1741 207)" fill="red"/>
    </g>
    <g transform="translate(-1416 -129)">
      <rect id="Rectangle_2-16" data-name="Rectangle 2" width="23" height="23" rx="7" transform="translate(1741 207)" fill="red"/>
    </g>
    <g transform="translate(-1354 -129)">
      <rect id="Rectangle_2-17" data-name="Rectangle 2" width="23" height="23" rx="7" transform="translate(1741 207)" fill="red"/>
    </g>
    <g transform="translate(-1292 -129)">
      <rect id="Rectangle_2-18" data-name="Rectangle 2" width="23" height="23" rx="7" transform="translate(1741 207)" fill="red"/>
    </g>
    <g transform="translate(-1230 -129)">
      <rect id="Rectangle_2-19" data-name="Rectangle 2" width="23" height="23" rx="7" transform="translate(1741 207)" fill="red"/>
    </g>
    <g transform="translate(-1168 -129)">
      <rect id="Rectangle_2-20" data-name="Rectangle 2" width="23" height="23" rx="7" transform="translate(1741 207)" fill="red"/>
    </g>
    <g transform="translate(-1726 -54)">
      <rect id="Rectangle_2-21" data-name="Rectangle 2" width="23" height="23" rx="7" transform="translate(1741 207)" fill="red"/>
    </g>
    <g transform="translate(-1664 -54)">
      <rect id="Rectangle_2-22" data-name="Rectangle 2" width="23" height="23" rx="7" transform="translate(1741 207)" fill="red"/>
    </g>
    <g transform="translate(-1602 -54)">
      <rect id="Rectangle_2-23" data-name="Rectangle 2" width="23" height="23" rx="7" transform="translate(1741 207)" fill="red"/>
    </g>
    <g transform="translate(-1540 -54)">
      <rect id="Rectangle_2-24" data-name="Rectangle 2" width="23" height="23" rx="7" transform="translate(1741 207)" fill="red"/>
    </g>
    <g transform="translate(-1478 -54)">
      <rect id="Rectangle_2-25" data-name="Rectangle 2" width="23" height="23" rx="7" transform="translate(1741 207)" fill="red"/>
    </g>
    <g transform="translate(-1416 -54)">
      <rect id="Rectangle_2-26" data-name="Rectangle 2" width="23" height="23" rx="7" transform="translate(1741 207)" fill="red"/>
    </g>
    <g transform="translate(-1354 -54)">
      <rect id="Rectangle_2-27" data-name="Rectangle 2" width="23" height="23" rx="7" transform="translate(1741 207)" fill="red"/>
    </g>
    <g transform="translate(-1292 -54)">
      <rect id="Rectangle_2-28" data-name="Rectangle 2" width="23" height="23" rx="7" transform="translate(1741 207)" fill="red"/>
    </g>
    <g transform="translate(-1230 -54)">
      <rect id="Rectangle_2-29" data-name="Rectangle 2" width="23" height="23" rx="7" transform="translate(1741 207)" fill="red"/>
    </g>
    <g transform="translate(-1168 -54)">
      <rect id="Rectangle_2-30" data-name="Rectangle 2" width="23" height="23" rx="7" transform="translate(1741 207)" fill="red"/>
    </g>
    <g transform="translate(-1726 21)">
      <rect id="Rectangle_2-31" data-name="Rectangle 2" width="23" height="23" rx="7" transform="translate(1741 207)" fill="red"/>
    </g>
    <g transform="translate(-1664 21)">
      <rect id="Rectangle_2-32" data-name="Rectangle 2" width="23" height="23" rx="7" transform="translate(1741 207)" fill="red"/>
    </g>
    <g transform="translate(-1602 21)">
      <rect id="Rectangle_2-33" data-name="Rectangle 2" width="23" height="23" rx="7" transform="translate(1741 207)" fill="red"/>
    </g>
    <g transform="translate(-1540 21)">
      <rect id="Rectangle_2-34" data-name="Rectangle 2" width="23" height="23" rx="7" transform="translate(1741 207)" fill="red"/>
    </g>
    <g transform="translate(-1478 21)">
      <rect id="Rectangle_2-35" data-name="Rectangle 2" width="23" height="23" rx="7" transform="translate(1741 207)" fill="red"/>
    </g>
    <g transform="translate(-1416 21)">
      <rect id="Rectangle_2-36" data-name="Rectangle 2" width="23" height="23" rx="7" transform="translate(1741 207)" fill="red"/>
    </g>
    <g transform="translate(-1354 21)">
      <rect id="Rectangle_2-37" data-name="Rectangle 2" width="23" height="23" rx="7" transform="translate(1741 207)" fill="red"/>
    </g>
    <g transform="translate(-1292 21)">
      <rect id="Rectangle_2-38" data-name="Rectangle 2" width="23" height="23" rx="7" transform="translate(1741 207)" fill="red"/>
    </g>
    <g transform="translate(-1230 21)">
      <rect id="Rectangle_2-39" data-name="Rectangle 2" width="23" height="23" rx="7" transform="translate(1741 207)" fill="red"/>
    </g>
    <g transform="translate(-1168 21)">
      <rect id="Rectangle_2-40" data-name="Rectangle 2" width="23" height="23" rx="7" transform="translate(1741 207)" fill="red"/>
    </g>
    <g transform="translate(-1726 96)">
      <rect id="Rectangle_2-41" data-name="Rectangle 2" width="23" height="23" rx="7" transform="translate(1741 207)" fill="red"/>
    </g>
    <g transform="translate(-1664 96)">
      <rect id="Rectangle_2-42" data-name="Rectangle 2" width="23" height="23" rx="7" transform="translate(1741 207)" fill="red"/>
    </g>
    <g transform="translate(-1602 96)">
      <rect id="Rectangle_2-43" data-name="Rectangle 2" width="23" height="23" rx="7" transform="translate(1741 207)" fill="red"/>
    </g>
    <g transform="translate(-1540 96)">
      <rect id="Rectangle_2-44" data-name="Rectangle 2" width="23" height="23" rx="7" transform="translate(1741 207)" fill="red"/>
    </g>
    <g transform="translate(-1478 96)">
      <rect id="Rectangle_2-45" data-name="Rectangle 2" width="23" height="23" rx="7" transform="translate(1741 207)" fill="red"/>
    </g>
    <g transform="translate(-1416 96)">
      <rect id="Rectangle_2-46" data-name="Rectangle 2" width="23" height="23" rx="7" transform="translate(1741 207)" fill="red"/>
    </g>
    <g transform="translate(-1354 96)">
      <rect id="Rectangle_2-47" data-name="Rectangle 2" width="23" height="23" rx="7" transform="translate(1741 207)" fill="red"/>
    </g>
    <g transform="translate(-1292 96)">
      <rect id="Rectangle_2-48" data-name="Rectangle 2" width="23" height="23" rx="7" transform="translate(1741 207)" fill="red"/>
    </g>
    <g transform="translate(-1230 96)">
      <rect id="Rectangle_2-49" data-name="Rectangle 2" width="23" height="23" rx="7" transform="translate(1741 207)" fill="red"/>
    </g>
    <g transform="translate(-1168 96)">
      <rect id="Rectangle_2-50" data-name="Rectangle 2" width="23" height="23" rx="7" transform="translate(1741 207)" fill="red"/>
    </g>
    <g transform="translate(-1726 171)">
      <rect id="Rectangle_2-51" data-name="Rectangle 2" width="23" height="23" rx="7" transform="translate(1741 207)" fill="red"/>
    </g>
    <g transform="translate(-1664 171)">
      <rect id="Rectangle_2-52" data-name="Rectangle 2" width="23" height="23" rx="7" transform="translate(1741 207)" fill="red"/>
    </g>
    <g transform="translate(-1602 171)">
      <rect id="Rectangle_2-53" data-name="Rectangle 2" width="23" height="23" rx="7" transform="translate(1741 207)" fill="red"/>
    </g>
    <g transform="translate(-1540 171)">
      <rect id="Rectangle_2-54" data-name="Rectangle 2" width="23" height="23" rx="7" transform="translate(1741 207)" fill="red"/>
    </g>
    <g transform="translate(-1478 171)">
      <rect id="Rectangle_2-55" data-name="Rectangle 2" width="23" height="23" rx="7" transform="translate(1741 207)" fill="red"/>
    </g>
    <g transform="translate(-1416 171)">
      <rect id="Rectangle_2-56" data-name="Rectangle 2" width="23" height="23" rx="7" transform="translate(1741 207)" fill="red"/>
    </g>
    <g transform="translate(-1354 171)">
      <rect id="Rectangle_2-57" data-name="Rectangle 2" width="23" height="23" rx="7" transform="translate(1741 207)" fill="red"/>
    </g>
    <g transform="translate(-1292 171)">
      <rect id="Rectangle_2-58" data-name="Rectangle 2" width="23" height="23" rx="7" transform="translate(1741 207)" fill="red"/>
    </g>
    <g transform="translate(-1230 171)">
      <rect id="Rectangle_2-59" data-name="Rectangle 2" width="23" height="23" rx="7" transform="translate(1741 207)" fill="red"/>
    </g>
    <g transform="translate(-1168 171)">
      <rect id="Rectangle_2-60" data-name="Rectangle 2" width="23" height="23" rx="7" transform="translate(1741 207)" fill="red"/>
    </g>
  </g>
</svg>
