<svg xmlns="http://www.w3.org/2000/svg" xmlns:xlink="http://www.w3.org/1999/xlink" width="561" height="422" viewBox="0 0 561 422"><defs><clipPath id="a"><rect width="561" height="422" fill="none"/></clipPath></defs><g opacity="0.38" clip-path="url(#a)"><g transform="translate(-1726 -204)"><rect width="23" height="23" rx="7" transform="translate(1741 207)" fill="red"/></g><g transform="translate(-1664 -204)"><rect width="23" height="23" rx="7" transform="translate(1741 207)" fill="red"/></g><g transform="translate(-1602 -2)"><rect width="23" height="23" rx="7" transform="translate(1741 207)" fill="red"/></g><g transform="translate(-1540 -204)"><rect width="23" height="23" rx="7" transform="translate(1741 207)" fill="red"/></g><g transform="translate(-1478 -204)"><rect width="23" height="23" rx="7" transform="translate(1741 207)" fill="red"/></g><g transform="translate(-1416 -204)"><rect width="23" height="23" rx="7" transform="translate(1741 207)" fill="red"/></g><g transform="translate(-1354 -204)"><rect width="23" height="23" rx="7" transform="translate(1741 207)" fill="red"/></g><g transform="translate(-1292 -204)"><rect width="23" height="23" rx="7" transform="translate(1741 207)" fill="red"/></g><g transform="translate(-1230 -204)"><rect width="23" height="23" rx="7" transform="translate(1741 207)" fill="red"/></g><g transform="translate(-1168 -204)"><rect width="23" height="23" rx="7" transform="translate(1741 207)" fill="red"/></g><g transform="translate(-1726 -129)"><rect width="23" height="23" rx="7" transform="translate(1741 207)" fill="red"/></g><g transform="translate(-1664 -129)"><rect width="23" height="23" rx="7" transform="translate(1741 207)" fill="red"/></g><g transform="translate(-1602 -129)"><rect width="23" height="23" rx="7" transform="translate(1741 207)" fill="red"/></g><g transform="translate(-1540 -129)"><rect width="23" height="23" rx="7" transform="translate(1741 207)" fill="red"/></g><g transform="translate(-1478 -129)"><rect width="23" height="23" rx="7" transform="translate(1741 207)" fill="red"/></g><g transform="translate(-1416 -129)"><rect width="23" height="23" rx="7" transform="translate(1741 207)" fill="red"/></g><g transform="translate(-1354 -129)"><rect width="23" height="23" rx="7" transform="translate(1741 207)" fill="red"/></g><g transform="translate(-1292 -129)"><rect width="23" height="23" rx="7" transform="translate(1741 207)" fill="red"/></g><g transform="translate(-1230 -129)"><rect width="23" height="23" rx="7" transform="translate(1741 207)" fill="red"/></g><g transform="translate(-1168 -129)"><rect width="23" height="23" rx="7" transform="translate(1741 207)" fill="red"/></g><g transform="translate(-1726 -54)"><rect width="23" height="23" rx="7" transform="translate(1741 207)" fill="red"/></g><g transform="translate(-1664 -54)"><rect width="23" height="23" rx="7" transform="translate(1741 207)" fill="red"/></g><g transform="translate(-1602 -54)"><rect width="23" height="23" rx="7" transform="translate(1741 207)" fill="red"/></g><g transform="translate(-1540 -54)"><rect width="23" height="23" rx="7" transform="translate(1741 207)" fill="red"/></g><g transform="translate(-1478 -54)"><rect width="23" height="23" rx="7" transform="translate(1741 207)" fill="red"/></g><g transform="translate(-1416 -54)"><rect width="23" height="23" rx="7" transform="translate(1741 207)" fill="red"/></g><g transform="translate(-1354 -54)"><rect width="23" height="23" rx="7" transform="translate(1741 207)" fill="red"/></g><g transform="translate(-1292 -54)"><rect width="23" height="23" rx="7" transform="translate(1741 207)" fill="red"/></g><g transform="translate(-1230 -54)"><rect width="23" height="23" rx="7" transform="translate(1741 207)" fill="red"/></g><g transform="translate(-1168 -54)"><rect width="23" height="23" rx="7" transform="translate(1741 207)" fill="red"/></g><g transform="translate(-1726 21)"><rect width="23" height="23" rx="7" transform="translate(1741 207)" fill="red"/></g><g transform="translate(-1664 21)"><rect width="23" height="23" rx="7" transform="translate(1741 207)" fill="red"/></g><g transform="translate(-1602 21)"><rect width="23" height="23" rx="7" transform="translate(1741 207)" fill="red"/></g><g transform="translate(-1540 21)"><rect width="23" height="23" rx="7" transform="translate(1741 207)" fill="red"/></g><g transform="translate(-1478 21)"><rect width="23" height="23" rx="7" transform="translate(1741 207)" fill="red"/></g><g transform="translate(-1416 21)"><rect width="23" height="23" rx="7" transform="translate(1741 207)" fill="red"/></g><g transform="translate(-1354 21)"><rect width="23" height="23" rx="7" transform="translate(1741 207)" fill="red"/></g><g transform="translate(-1292 21)"><rect width="23" height="23" rx="7" transform="translate(1741 207)" fill="red"/></g><g transform="translate(-1230 21)"><rect width="23" height="23" rx="7" transform="translate(1741 207)" fill="red"/></g><g transform="translate(-1168 21)"><rect width="23" height="23" rx="7" transform="translate(1741 207)" fill="red"/></g><g transform="translate(-1726 96)"><rect width="23" height="23" rx="7" transform="translate(1741 207)" fill="red"/></g><g transform="translate(-1664 96)"><rect width="23" height="23" rx="7" transform="translate(1741 207)" fill="red"/></g><g transform="translate(-1602 96)"><rect width="23" height="23" rx="7" transform="translate(1741 207)" fill="red"/></g><g transform="translate(-1540 96)"><rect width="23" height="23" rx="7" transform="translate(1741 207)" fill="red"/></g><g transform="translate(-1478 96)"><rect width="23" height="23" rx="7" transform="translate(1741 207)" fill="red"/></g><g transform="translate(-1416 96)"><rect width="23" height="23" rx="7" transform="translate(1741 207)" fill="red"/></g><g transform="translate(-1354 96)"><rect width="23" height="23" rx="7" transform="translate(1741 207)" fill="red"/></g><g transform="translate(-1292 96)"><rect width="23" height="23" rx="7" transform="translate(1741 207)" fill="red"/></g><g transform="translate(-1230 96)"><rect width="23" height="23" rx="7" transform="translate(1741 207)" fill="red"/></g><g transform="translate(-1168 96)"><rect width="23" height="23" rx="7" transform="translate(1741 207)" fill="red"/></g><g transform="translate(-1726 171)"><rect width="23" height="23" rx="7" transform="translate(1741 207)" fill="red"/></g><g transform="translate(-1664 171)"><rect width="23" height="23" rx="7" transform="translate(1741 207)" fill="red"/></g><g transform="translate(-1602 171)"><rect width="23" height="23" rx="7" transform="translate(1741 207)" fill="red"/></g><g transform="translate(-1540 171)"><rect width="23" height="23" rx="7" transform="translate(1741 207)" fill="red"/></g><g transform="translate(-1478 171)"><rect width="23" height="23" rx="7" transform="translate(1741 207)" fill="red"/></g><g transform="translate(-1416 171)"><rect width="23" height="23" rx="7" transform="translate(1741 207)" fill="red"/></g><g transform="translate(-1354 171)"><rect width="23" height="23" rx="7" transform="translate(1741 207)" fill="red"/></g><g transform="translate(-1292 171)"><rect width="23" height="23" rx="7" transform="translate(1741 207)" fill="red"/></g><g transform="translate(-1230 171)"><rect width="23" height="23" rx="7" transform="translate(1741 207)" fill="red"/></g><g transform="translate(-1168 171)"><rect width="23" height="23" rx="7" transform="translate(1741 207)" fill="red"/></g></g></svg>