<svg xmlns="http://www.w3.org/2000/svg" width="143" height="143" viewBox="0 0 143 143"><path d="M-6051.5-44a72.02,72.02,0,0,1-14.409-1.453,71.153,71.153,0,0,1-13.422-4.166,71.523,71.523,0,0,1-12.145-6.592,72,72,0,0,1-10.582-8.731,72.006,72.006,0,0,1-8.731-10.582,71.481,71.481,0,0,1-6.592-12.145,71.105,71.105,0,0,1-4.166-13.421A72.032,72.032,0,0,1-6123-115.5a72.03,72.03,0,0,1,1.453-14.41,71.1,71.1,0,0,1,4.166-13.421,71.482,71.482,0,0,1,6.592-12.145,72,72,0,0,1,8.731-10.582,72,72,0,0,1,10.582-8.731,71.516,71.516,0,0,1,12.145-6.592,71.154,71.154,0,0,1,13.422-4.166A72.021,72.021,0,0,1-6051.5-187a72.03,72.03,0,0,1,14.41,1.453,71.138,71.138,0,0,1,13.421,4.166,71.516,71.516,0,0,1,12.145,6.592,72.008,72.008,0,0,1,10.582,8.731,72,72,0,0,1,8.73,10.582,71.5,71.5,0,0,1,6.592,12.145,71.135,71.135,0,0,1,4.167,13.421A72.034,72.034,0,0,1-5980-115.5a72.035,72.035,0,0,1-1.452,14.41,71.136,71.136,0,0,1-4.167,13.421,71.491,71.491,0,0,1-6.592,12.145,72,72,0,0,1-8.73,10.582,72.008,72.008,0,0,1-10.582,8.731,71.5,71.5,0,0,1-12.145,6.592,71.137,71.137,0,0,1-13.421,4.166A72.033,72.033,0,0,1-6051.5-44Zm12.708-109.93a47.823,47.823,0,0,0-47.769,47.769,47.823,47.823,0,0,0,47.769,47.769,47.823,47.823,0,0,0,47.769-47.769A47.823,47.823,0,0,0-6038.793-153.93Z" transform="translate(6123.001 187)" fill="rgba(66,75,210,0.59)"/></svg>